[center][img]http://www.leetleech.org/images/68619896657063018115.jpg[/img]

:::::::::::::Enjoy:Another:Release:From:T0XiCiNK::::::::::::::

File::Vanishing.On.7th.Street.2010.R5.AC3.XViD-T0XiCiNK

Video Source:: ELEKTRI4KA
Audio Source:: PPV (DiNKY)
Language::English
IMDB::http://www.imdb.com/title/tt1452628/

When a massive power outage plunges the city of Detroit into total darkness,
a disparate group of individuals find themselves alone. The entire city's population
has vanished into thin air, leaving behind heaps of empty clothing, abandoned cars
and lengthening shadows. Soon the daylight begins to disappear completely, and as
the survivors gather in an abandoned tavern, they realize the darkness is out to
get them, and only their rapidly diminishing light sources can keep them safe.

Specs::

General


Format                           : AVI
Format/Info                      : Audio Video Interleave
File size                        : 1.41 GiB
Duration                         : 1h 27mn
Overall bit rate                 : 2 300 Kbps
Writing application              : VirtualDubMod 1.5.10.2 (build 2540/release)
Writing library                  : VirtualDubMod build 2540/release

Video
ID                               : 0
Format                           : MPEG-4 Visual
Format profile                   : Advanced Simple@L5
Format settings, BVOP            : 2
Format settings, QPel            : No
Format settings, GMC             : No warppoints
Format settings, Matrix          : Custom
Codec ID                         : XVID
Codec ID/Hint                    : XviD
Duration                         : 1h 27mn
Bit rate                         : 1 842 Kbps
Width                            : 720 pixels
Height                           : 304 pixels
Display aspect ratio             : 2.35:1
Frame rate                       : 25.000 fps
Color space                      : YUV
Chroma subsampling               : 4:2:0
Bit depth                        : 8 bits
Scan type                        : Progressive
Compression mode                 : Lossy
Bits/(Pixel*Frame)               : 0.337
Stream size                      : 1.13 GiB (80%)
Writing library                  : XviD 58

Audio
ID                               : 1
Format                           : AC-3
Format/Info                      : Audio Coding 3
Mode extension                   : CM (complete main)
Codec ID                         : 2000
Duration                         : 1h 27mn
Bit rate mode                    : Constant
Bit rate                         : 448 Kbps
Channel(s)                       : 6 channels
Channel positions                : Front: L C R, Side: L R, LFE
Sampling rate                    : 48.0 KHz
Bit depth                        : 16 bits
Compression mode                 : Lossy
Stream size                      : 281 MiB (19%)
Alignment                        : Split accross interleaves
Interleave, duration             : 40 ms (1.00 video frame)
Interleave, preload duration     : 500 ms



NOTES:: Presenting first r5 of Vanishing On 7th Street, using audio from PPV (Studio) along with
studio russian surrounds. Enjoy.


::Why Complain? Whats Free Is Free::

::We are always looking for friends with unreleased DVD's, Screeners, R5's, Audio, Cams, Silvers,
...and any other good sources you may have to offer -
..contact us: t0xicreleases@hushmail.com or digital.ink@live.com

::::::::::::::::::::::::::::::::::::   Respect To   :::::::::::::::::::::::::::::::::::::
::IMAGiNE,FLAWL3SS,Hive-CM8,Tranz,Vik,OneTwo,Joey,bob,Unevano,SANTi & our friends on utn and PA::
                      "and to all of you who support us, Thank-You"
[/center]